<svg width="194" height="40" fill="none" xmlns="http://www.w3.org/2000/svg"><path d="M13.556 26.015c-.44 0-.887-.043-1.327-.136a4.628 4.628 0 01-1.285-.483c-.412-.228-.752-.576-1.029-1.032-.12-.213-.27-.619-.454-1.223-.185-.59-.277-1.6-.277-3.01 0-.611.035-1.18.092-1.7.057-.519.17-1.024.32-1.515a4.72 4.72 0 01.51-1.124c.213-.348.49-.661.845-.939.355-.277.795-.49 1.327-.647.54-.15 1.193-.228 1.952-.228h8.893v-6.16H10.05c-1.462 0-2.818.178-4.06.526-1.235.356-2.335 1.025-3.279 2a7.15 7.15 0 00-1.49 2.162 12.668 12.668 0 00-.802 2.482 17.192 17.192 0 00-.348 2.647A57.47 57.47 0 000 20.33c0 1.864.128 3.55.37 5.05.247 1.509.837 2.803 1.78 3.906a7.113 7.113 0 001.796 1.544 8.629 8.629 0 001.973.875c.674.206 1.32.327 1.952.39.624.072 1.2.093 1.717.093h14.039v-6.16H13.556v-.014zm38.098-2.845c-.149-.74-.54-1.402-1.15-1.979-.454-.433-1.021-.768-1.696-1.017a7.533 7.533 0 00-1.916-.455v-.093a7.445 7.445 0 001.902-.433 4.67 4.67 0 001.583-.947c.646-.611 1.029-1.28 1.164-2.02.142-.74.213-1.444.213-2.12 0-.27-.014-.604-.05-.981a8.822 8.822 0 00-.185-1.224 5.73 5.73 0 00-.432-1.287 4.195 4.195 0 00-.803-1.153 4.516 4.516 0 00-1.469-.982 7.42 7.42 0 00-1.717-.483 15.41 15.41 0 00-1.81-.164c-.617-.014-1.192-.028-1.739-.028H32.03c-.795 0-1.625.05-2.477.163-.852.107-1.59.406-2.2.897-.468.398-.83.939-1.107 1.629a6.08 6.08 0 00-.405 2.226v14.996c0 1.01.15 1.785.483 2.319.312.533.603.918.845 1.124.61.519 1.334.825 2.171.896a26.75 26.75 0 002.463.107h11.881a31.62 31.62 0 003.506-.185 5.076 5.076 0 003.002-1.373c.398-.37.71-.79.937-1.266.234-.477.398-.96.504-1.451.113-.491.177-.96.213-1.409.028-.441.043-.811.043-1.124 0-.726-.079-1.465-.228-2.205l-.007.021zM34.82 15.53c0-.307.057-.563.185-.755a1.74 1.74 0 01.404-.484c.22-.15.448-.249.696-.277.248-.029.426-.043.547-.043h3.896c.277 0 .582.014.916.043.34.035.631.128.88.277.212.15.347.306.404.456.071.149.092.32.092.505 0 .213-.028.44-.07.69-.043.249-.192.448-.433.604-.072.057-.235.136-.504.228-.277.092-.795.135-1.562.135h-5.458v-1.38h.007zm8.027 9.112c-.028.149-.17.327-.411.547-.327.328-.653.491-.937.484a19.684 19.684 0 00-.986-.028h-4.266c-.15 0-.348-.015-.575-.05a.814.814 0 01-.575-.363.877.877 0 01-.248-.576c-.014-.228-.029-.391-.029-.484v-1.65h6.58c.319 0 .653.12.986.363.249.184.39.384.433.576a2.816 2.816 0 01.028 1.174v.007zm36.671-9.497a8.741 8.741 0 00-.319-1.786 9.472 9.472 0 00-.71-1.8 6.447 6.447 0 00-1.192-1.628c-.518-.527-1.278-1.01-2.264-1.452-1-.448-2.243-.668-3.74-.668H55.182v6.068h12.214c.454 0 .944.042 1.462.135.525.092.944.37 1.285.832.213.278.348.562.39.847.05.299.071.547.071.76v.364H59.965c-.71 0-1.426.05-2.179.142-.752.085-1.462.398-2.129.918a4.1 4.1 0 00-1.15 1.287 6.417 6.417 0 00-.617 1.558 11.51 11.51 0 00-.277 1.679 22.12 22.12 0 00-.021 3.286c.028.62.1 1.238.227 1.864a7.7 7.7 0 00.59 1.814 4.92 4.92 0 001.1 1.515c.645.62 1.355.982 2.136 1.103.78.128 1.547.185 2.313.185h14.308c.703 0 1.42-.057 2.158-.185.738-.121 1.398-.484 1.98-1.103.547-.576.88-1.209 1.008-1.906.12-.69.184-1.359.184-2V16.768c0-.491-.028-1.032-.078-1.636v.014zm-8.92 8.992c0 .213-.015.433-.072.647-.042.213-.177.398-.39.548a1.42 1.42 0 01-.59.256 4.39 4.39 0 01-.737.07h-4.685c-.213 0-.433-.035-.66-.092a1.237 1.237 0 01-.575-.32 1.065 1.065 0 01-.298-.505 2.041 2.041 0 01-.078-.547c0-.214.029-.413.078-.62a1.07 1.07 0 01.298-.526 1.42 1.42 0 01.71-.348c.263-.043.469-.072.618-.072h6.373v1.516l.007-.007zm37.693-6.901a16.88 16.88 0 00-.319-2.361 11.936 11.936 0 00-.781-2.39 7.587 7.587 0 00-1.448-2.142 6.514 6.514 0 00-1.817-1.373 9.333 9.333 0 00-1.944-.76 10.716 10.716 0 00-1.81-.321 20.297 20.297 0 00-1.448-.071H87.432c-.582 0-1.157.043-1.739.135-.582.093-1.15.342-1.696.74-.703.526-1.15 1.102-1.356 1.743a7.111 7.111 0 00-.298 2.027V40h8.993v-7.818h6.657c.646 0 1.327-.028 2.065-.092a11.713 11.713 0 002.25-.406 8.683 8.683 0 002.2-.989c.703-.44 1.335-1.067 1.888-1.863.454-.67.823-1.459 1.1-2.34.27-.89.476-1.78.589-2.668.128-.89.206-1.736.234-2.554a58.31 58.31 0 00.043-2c0-.582-.028-1.251-.071-2.026v-.008zm-9.198 4.852a4.677 4.677 0 01-.454 1.679c-.213.398-.582.81-1.1 1.245-.526.433-1.27.647-2.25.647h-3.946V15.494c0-.342.113-.612.32-.833a1.33 1.33 0 01.347-.206c.17-.078.298-.121.39-.121h3.166c.127 0 .326.014.624.05.291.028.59.107.916.256.32.135.631.341.937.619.312.27.546.661.738 1.145a6.04 6.04 0 01.347 1.608c.043.583.071 1.23.071 1.935 0 .796-.035 1.508-.092 2.134l-.014.007z" fill="#D70A12"/><path d="M123.564 26.015c-.44 0-.887-.043-1.327-.136a4.617 4.617 0 01-1.284-.483c-.412-.228-.753-.576-1.03-1.032-.12-.213-.269-.619-.454-1.223-.184-.59-.277-1.6-.277-3.01 0-.611.036-1.18.093-1.7a8.27 8.27 0 01.319-1.515 5.02 5.02 0 01.504-1.124 3.5 3.5 0 01.845-.939c.354-.277.794-.49 1.327-.647.539-.15 1.192-.228 1.951-.228h8.893v-6.16h-13.073c-1.462 0-2.817.178-4.06.526-1.234.356-2.335 1.025-3.278 2a7.151 7.151 0 00-1.491 2.162 12.69 12.69 0 00-.802 2.482 17.298 17.298 0 00-.348 2.647 58.276 58.276 0 00-.071 2.696c0 1.864.128 3.55.369 5.05.249 1.509.838 2.803 1.782 3.906a7.117 7.117 0 001.795 1.544 8.623 8.623 0 001.974.875c.674.206 1.32.327 1.951.39.625.072 1.2.093 1.718.093h14.038v-6.16h-10.071l.007-.014zm40.207-14.889a3.587 3.587 0 00-.589-1.608c-.341-.526-.852-.982-1.562-1.38-.702-.398-1.689-.605-2.974-.605-.709 0-1.277.057-1.724.164-.44.107-.823.249-1.143.413-.319.17-.582.37-.788.604-.191.228-.39.448-.567.662l-8.815 11.083c-.093.12-.206.27-.348.434-.135.17-.298.256-.483.256-.184 0-.298-.057-.34-.178a1.432 1.432 0 01-.071-.505l.454-12.648h-8.992v20.046c0 1.074.17 1.907.525 2.511.348.59.788 1.06 1.299 1.38.525.32 1.085.52 1.675.59.603.079 1.142.122 1.632.122s.93-.029 1.327-.072a4.63 4.63 0 001.122-.277 3.247 3.247 0 001.029-.647 8.28 8.28 0 001.057-1.124l8.623-10.806c.149-.178.291-.348.412-.498.121-.15.263-.227.412-.227.177 0 .291.078.319.227.028.15.043.32.043.498l-.455 12.648h8.993V12.413c0-.306-.029-.725-.093-1.28l.022-.007zm29.156 5.748c-.171-1.324-.618-2.497-1.356-3.543-.525-.761-1.136-1.366-1.838-1.8a9.079 9.079 0 00-2.207-.967 11.09 11.09 0 00-2.243-.392 35.175 35.175 0 00-1.98-.07h-7.701c-.057-.797.057-1.43.362-1.907.305-.477.603-.832.873-1.074a3.96 3.96 0 012.179-.854 23.508 23.508 0 012.179-.107h10.688V0h-16.018c-.611 0-1.278.057-1.995.178a9.505 9.505 0 00-2.129.647c-.703.313-1.377.704-2.016 1.181a6.718 6.718 0 00-1.66 1.771 8.49 8.49 0 00-1.072 2.497c-.263.968-.39 2.077-.39 3.337v12.498c0 1.167.049 2.312.163 3.45.099 1.139.468 2.22 1.072 3.265.525.89 1.192 1.587 2.022 2.07a9.59 9.59 0 002.775 1.089 18.93 18.93 0 003.322.412c1.192.043 2.434.072 3.719.072 1.405 0 2.704-.029 3.896-.072 1.193-.05 2.279-.177 3.258-.398.979-.213 1.852-.548 2.612-1.01.766-.455 1.419-1.103 1.98-1.935.795-1.16 1.278-2.468 1.462-3.905a34.28 34.28 0 00.277-4.368 30.2 30.2 0 00-.256-3.905h.022zm-8.95 5.449a5.305 5.305 0 01-.163 1.116c-.093.37-.249.726-.455 1.089-.22.356-.503.633-.873.846-.397.25-.894.399-1.497.47a15.43 15.43 0 01-1.398.085c-.433 0-.916-.042-1.448-.135-.532-.092-.972-.27-1.313-.548a2.915 2.915 0 01-.916-1.223 3.464 3.464 0 01-.319-1.402v-6.715h4.904c.923 0 1.604.22 2.073.662.454.448.759.803.915 1.088.249.455.391.989.433 1.608a24.34 24.34 0 01.05 3.066l.007-.007z" fill="#727272"/></svg>