<svg width="194" height="40" viewBox="0 0 194 40" fill="none" xmlns="http://www.w3.org/2000/svg">
<path d="M13.5559 26.0146C13.1159 26.0146 12.6687 25.9719 12.2287 25.8794C11.7887 25.7869 11.3557 25.6233 10.9441 25.3957C10.5324 25.1681 10.1918 24.8195 9.91496 24.3642C9.79431 24.1508 9.64526 23.7453 9.46073 23.1407C9.2762 22.5502 9.18394 21.5401 9.18394 20.1316C9.18394 19.5198 9.21942 18.9507 9.2762 18.4314C9.33298 17.9121 9.44654 17.4071 9.59558 16.9162C9.71623 16.5179 9.88657 16.148 10.1066 15.7923C10.3195 15.4437 10.5963 15.1307 10.9512 14.8533C11.306 14.5758 11.7461 14.3624 12.2784 14.2059C12.8178 14.0566 13.4707 13.9783 14.2301 13.9783H23.1231V7.81789H10.0498C8.58776 7.81789 7.23217 7.99573 5.99014 8.3443C4.75521 8.69998 3.65512 9.36866 2.71118 10.3432C2.06532 10.9906 1.5756 11.7091 1.22074 12.5058C0.865872 13.3025 0.603273 14.1348 0.418742 14.9884C0.234212 15.8563 0.120653 16.7313 0.0709722 17.6347C0.0283882 18.5381 0 19.4416 0 20.3308C0 22.1946 0.127752 23.8805 0.369061 25.3815C0.617468 26.8896 1.20654 28.1842 2.15049 29.2869C2.69698 29.9342 3.30025 30.4464 3.94611 30.8305C4.59197 31.2147 5.24492 31.5063 5.91917 31.7055C6.59341 31.9118 7.23927 32.0327 7.87093 32.0967C8.49549 32.1679 9.07038 32.1892 9.58849 32.1892H23.627V26.0288H13.5559V26.0146Z" fill="#D70A12"/>
<path d="M51.6543 23.1691C51.5052 22.4293 51.1149 21.7677 50.5045 21.1915C50.0503 20.7576 49.4825 20.4233 48.8083 20.1743C48.1411 19.9253 47.4953 19.7759 46.892 19.719V19.6265C47.5378 19.5696 48.1695 19.4202 48.7941 19.1926C49.4186 18.965 49.9438 18.6449 50.3768 18.2465C51.0226 17.6347 51.4059 16.966 51.5407 16.2262C51.6827 15.4864 51.7537 14.7822 51.7537 14.1064C51.7537 13.836 51.7395 13.5017 51.704 13.1247C51.6756 12.7334 51.6117 12.3279 51.5194 11.9011C51.4343 11.4672 51.2852 11.0475 51.0865 10.6136C50.8807 10.1796 50.6181 9.8026 50.2845 9.46115C49.8516 9.03433 49.369 8.7071 48.8154 8.47946C48.2689 8.25183 47.694 8.08821 47.0978 7.99573C46.4945 7.90325 45.8984 7.85346 45.288 7.83212C44.6705 7.81789 44.0956 7.80367 43.5491 7.80367H32.0302C31.2353 7.80367 30.4049 7.85346 29.5532 7.96728C28.7015 8.07398 27.9634 8.37275 27.353 8.86359C26.8846 9.26196 26.5227 9.8026 26.2459 10.4926C25.9762 11.1898 25.8413 11.9225 25.8413 12.7192V27.7147C25.8413 28.7249 25.9904 29.5003 26.3239 30.0338C26.6362 30.5673 26.9272 30.9515 27.1685 31.1578C27.7789 31.677 28.5028 31.9829 29.3403 32.0541C30.1849 32.1323 31.0082 32.1608 31.8031 32.1608H43.684C44.8763 32.1608 46.0403 32.1039 47.1901 31.9758C48.3327 31.8549 49.3406 31.3996 50.1922 30.6029C50.5897 30.233 50.902 29.8133 51.1291 29.3367C51.3633 28.86 51.5265 28.3763 51.633 27.8855C51.7465 27.3946 51.8104 26.9251 51.8459 26.477C51.8743 26.0359 51.8885 25.666 51.8885 25.353C51.8885 24.6274 51.8104 23.8876 51.6614 23.1478L51.6543 23.1691ZM34.8194 15.5291C34.8194 15.2232 34.8762 14.9671 35.004 14.775C35.1246 14.5687 35.2595 14.4122 35.4085 14.2913C35.6285 14.1419 35.8556 14.0423 36.104 14.0139C36.3525 13.9854 36.5299 13.9712 36.6505 13.9712H40.547C40.8238 13.9712 41.129 13.9854 41.4625 14.0139C41.8032 14.0494 42.0942 14.1419 42.3426 14.2913C42.5555 14.4407 42.6904 14.5972 42.7471 14.7466C42.8181 14.896 42.8394 15.0667 42.8394 15.2517C42.8394 15.4651 42.811 15.6927 42.7684 15.9417C42.7259 16.1906 42.5768 16.3898 42.3355 16.5463C42.2645 16.6032 42.1013 16.6815 41.8316 16.774C41.5548 16.8664 41.0367 16.9091 40.2702 16.9091H34.8123V15.5291H34.8194ZM42.8465 24.6417C42.8181 24.791 42.6762 24.9689 42.4349 25.1894C42.1084 25.5166 41.7819 25.6802 41.498 25.6731C41.207 25.6589 40.8805 25.6447 40.5115 25.6447H36.246C36.0969 25.6447 35.8982 25.6304 35.6711 25.5949C35.444 25.5664 35.2453 25.4455 35.0962 25.2321C34.9472 25.0827 34.862 24.8835 34.8478 24.6559C34.8336 24.4282 34.8194 24.2646 34.8194 24.1722V22.5218H41.3987C41.718 22.5218 42.0516 22.6427 42.3852 22.8846C42.6336 23.0695 42.7755 23.2687 42.8181 23.4608C42.8678 23.6671 42.8962 23.8876 42.8962 24.1295C42.8962 24.3144 42.882 24.478 42.8465 24.6345V24.6417Z" fill="#D70A12"/>
<path d="M79.5184 15.1449C79.4759 14.5545 79.3694 13.9499 79.1991 13.3594C79.0358 12.7548 78.7945 12.1643 78.4893 11.5597C78.1842 10.9692 77.7867 10.4144 77.297 9.93064C76.7789 9.40424 76.0195 8.92051 75.0329 8.47947C74.0322 8.03131 72.7902 7.81078 71.2927 7.81078H55.1817V13.8787H67.3962C67.8504 13.8787 68.3402 13.9214 68.8583 14.0139C69.3835 14.1064 69.8022 14.3838 70.1429 14.8462C70.3558 15.1236 70.4906 15.4082 70.5332 15.6927C70.5829 15.9915 70.6042 16.2404 70.6042 16.4539V16.8167H59.9653C59.2556 16.8167 58.5388 16.8664 57.7864 16.9589C57.0341 17.0443 56.3244 17.3573 55.6572 17.8766C55.1675 18.2394 54.7843 18.6733 54.5075 19.1642C54.2378 19.655 54.0249 20.1743 53.89 20.722C53.7552 21.284 53.6629 21.8389 53.6132 22.4009C53.5706 22.9699 53.5422 23.5177 53.5422 24.037C53.5422 24.5563 53.5564 25.0827 53.5919 25.6874C53.6203 26.3062 53.6913 26.9251 53.819 27.5511C53.9397 28.1771 54.1384 28.7889 54.4081 29.3651C54.6849 29.9484 55.054 30.4606 55.5082 30.8803C56.1541 31.4992 56.8638 31.862 57.6445 31.9829C58.4252 32.111 59.1917 32.1679 59.9582 32.1679H74.2664C74.9691 32.1679 75.6859 32.111 76.424 31.9829C77.1621 31.862 77.8222 31.4992 78.4042 30.8803C78.9507 30.3041 79.2842 29.671 79.412 28.9739C79.5326 28.2838 79.5965 27.6152 79.5965 26.9749V16.7669C79.5965 16.276 79.5681 15.7354 79.5184 15.1307V15.1449ZM70.5971 24.1366C70.5971 24.35 70.5829 24.5705 70.5261 24.7839C70.4836 24.9973 70.3487 25.1823 70.1358 25.3317C69.9867 25.4526 69.7809 25.538 69.5467 25.5878C69.2912 25.6305 69.057 25.6589 68.8086 25.6589H64.1243C63.9114 25.6589 63.6914 25.6233 63.4643 25.5664C63.2372 25.5095 63.0385 25.3957 62.8894 25.2463C62.7404 25.0969 62.6339 24.9262 62.5913 24.7412C62.5416 24.5634 62.5133 24.3784 62.5133 24.1935C62.5133 23.9801 62.5416 23.7809 62.5913 23.5746C62.6339 23.3825 62.7333 23.2047 62.8894 23.0482C63.1023 22.8632 63.3365 22.7423 63.5991 22.6996C63.8617 22.6569 64.0676 22.6285 64.2166 22.6285H70.59V24.1437L70.5971 24.1366Z" fill="#D70A12"/>
<path d="M108.291 17.2364C108.241 16.4752 108.142 15.6856 107.972 14.8746C107.801 14.0637 107.539 13.2669 107.191 12.4844C106.836 11.6948 106.354 10.9835 105.743 10.3432C105.197 9.76703 104.586 9.29753 103.926 8.9703C103.273 8.62885 102.627 8.37987 101.982 8.20914C101.336 8.03841 100.732 7.93882 100.172 7.88903C99.604 7.84635 99.1213 7.81789 98.7239 7.81789H87.432C86.8501 7.81789 86.2752 7.86057 85.6932 7.95305C85.1112 8.04552 84.5434 8.29451 83.9969 8.69287C83.2943 9.21928 82.8472 9.79548 82.6413 10.4357C82.4497 11.0831 82.3433 11.7588 82.3433 12.4631V40H91.3356V32.1821H97.9929C98.6387 32.1821 99.3201 32.1537 100.058 32.0896C100.796 32.0327 101.542 31.8976 102.308 31.6842C103.067 31.4636 103.806 31.1364 104.508 30.6954C105.211 30.2543 105.843 29.6283 106.396 28.8316C106.85 28.1629 107.219 27.3733 107.496 26.4912C107.766 25.602 107.972 24.7128 108.085 23.8236C108.213 22.9344 108.291 22.0879 108.319 21.2698C108.348 20.4588 108.362 19.783 108.362 19.2709C108.362 18.6875 108.334 18.0188 108.291 17.2435V17.2364ZM99.093 22.0879C99.0362 22.721 98.88 23.2829 98.6387 23.7667C98.4258 24.165 98.0567 24.5776 97.5386 25.0116C97.0134 25.4455 96.2682 25.6589 95.2888 25.6589H91.3427V15.4935C91.3427 15.1521 91.4562 14.8817 91.6621 14.6612C91.7188 14.6043 91.8395 14.5332 92.0098 14.4549C92.1801 14.3767 92.3079 14.334 92.4002 14.334H95.5656C95.6933 14.334 95.8921 14.3482 96.1901 14.3838C96.4811 14.4122 96.7792 14.4905 97.1057 14.6399C97.4251 14.775 97.7374 14.9813 98.0425 15.2588C98.3548 15.5291 98.589 15.9203 98.7807 16.4041C98.9652 16.8949 99.0788 17.4355 99.1284 18.0117C99.171 18.5951 99.1994 19.2424 99.1994 19.9466C99.1994 20.7434 99.1639 21.4547 99.1071 22.0807L99.093 22.0879Z" fill="#D70A12"/>
<path d="M123.564 26.0146C123.124 26.0146 122.677 25.9719 122.237 25.8794C121.797 25.7869 121.364 25.6233 120.953 25.3957C120.541 25.1681 120.2 24.8195 119.923 24.3642C119.803 24.1508 119.654 23.7453 119.469 23.1407C119.285 22.5502 119.192 21.5401 119.192 20.1316C119.192 19.5198 119.228 18.9507 119.285 18.4314C119.341 17.9121 119.455 17.4071 119.604 16.9162C119.732 16.5179 119.888 16.148 120.108 15.7923C120.321 15.4437 120.598 15.1307 120.953 14.8533C121.307 14.5758 121.747 14.3624 122.28 14.2059C122.819 14.0566 123.472 13.9783 124.231 13.9783H133.124V7.81789H120.051C118.589 7.81789 117.234 7.99573 115.991 8.3443C114.757 8.69998 113.656 9.36866 112.713 10.3432C112.067 10.9906 111.577 11.7091 111.222 12.5058C110.867 13.3025 110.605 14.1348 110.42 14.9884C110.236 15.8563 110.122 16.7313 110.072 17.6347C110.03 18.5381 110.001 19.4416 110.001 20.3308C110.001 22.1946 110.129 23.8805 110.37 25.3815C110.619 26.8896 111.208 28.1842 112.152 29.2869C112.698 29.9342 113.302 30.4464 113.947 30.8305C114.593 31.2147 115.246 31.5063 115.921 31.7055C116.595 31.9118 117.241 32.0327 117.872 32.0967C118.497 32.1679 119.072 32.1892 119.59 32.1892H133.628V26.0288H123.557L123.564 26.0146Z" fill="#727272"/>
<path d="M163.771 11.1257C163.714 10.5638 163.515 10.0302 163.182 9.51804C162.841 8.99163 162.33 8.53637 161.62 8.138C160.918 7.73964 159.931 7.53334 158.646 7.53334C157.937 7.53334 157.369 7.59025 156.922 7.69695C156.482 7.80366 156.099 7.94593 155.779 8.10954C155.46 8.28027 155.197 8.47946 154.991 8.71421C154.8 8.94184 154.601 9.16236 154.424 9.37577L145.609 20.4588C145.516 20.5798 145.403 20.7291 145.261 20.8928C145.126 21.0635 144.963 21.1488 144.778 21.1488C144.594 21.1488 144.48 21.0919 144.438 20.971C144.388 20.843 144.367 20.6722 144.367 20.4659L144.821 7.81788H135.829V27.8641C135.829 28.9383 135.999 29.7706 136.354 30.3752C136.702 30.9657 137.142 31.4352 137.653 31.7553C138.178 32.0754 138.738 32.2746 139.328 32.3457C139.931 32.424 140.47 32.4667 140.96 32.4667C141.45 32.4667 141.89 32.4382 142.287 32.3955C142.685 32.3457 143.068 32.2532 143.409 32.1181C143.763 31.9829 144.111 31.7695 144.438 31.4707C144.778 31.1791 145.133 30.8021 145.495 30.3468L154.118 19.5412C154.267 19.3633 154.409 19.1926 154.53 19.0432C154.651 18.8938 154.793 18.8156 154.942 18.8156C155.119 18.8156 155.233 18.8938 155.261 19.0432C155.289 19.1926 155.304 19.3633 155.304 19.5412L154.849 32.1892H163.842V12.4133C163.842 12.1074 163.813 11.6877 163.749 11.1328L163.771 11.1257Z" fill="#727272"/>
<path d="M192.927 16.8736C192.756 15.5504 192.309 14.3767 191.571 13.331C191.046 12.5698 190.435 11.9651 189.733 11.5312C189.03 11.1044 188.292 10.7843 187.526 10.5637C186.766 10.3503 186.014 10.2223 185.283 10.1725C184.545 10.1298 183.885 10.1014 183.303 10.1014H175.602C175.545 9.30464 175.659 8.67152 175.964 8.19491C176.269 7.71829 176.567 7.36261 176.837 7.12075C177.454 6.62991 178.178 6.33825 179.016 6.26711C179.86 6.18886 180.577 6.1604 181.195 6.1604H191.883V0H175.865C175.254 0 174.587 0.0569091 173.87 0.177841C173.153 0.305887 172.444 0.519287 171.741 0.825174C171.038 1.13817 170.364 1.52943 169.725 2.00604C169.08 2.48265 168.526 3.06598 168.065 3.77734C167.61 4.48159 167.241 5.31388 166.993 6.27422C166.73 7.24168 166.603 8.35141 166.603 9.61052V22.1092C166.603 23.2758 166.652 24.4211 166.766 25.5593C166.865 26.6975 167.234 27.7788 167.838 28.8245C168.363 29.7137 169.03 30.4108 169.86 30.8945C170.684 31.3854 171.613 31.7482 172.635 31.9829C173.657 32.2106 174.765 32.3457 175.957 32.3955C177.149 32.4382 178.391 32.4667 179.676 32.4667C181.081 32.4667 182.38 32.4382 183.572 32.3955C184.765 32.3457 185.851 32.2177 186.83 31.9971C187.809 31.7837 188.682 31.4494 189.442 30.987C190.208 30.5317 190.861 29.8844 191.422 29.0521C192.217 27.8926 192.7 26.5837 192.884 25.1467C193.069 23.7026 193.161 22.2515 193.161 20.7789C193.161 19.4914 193.076 18.1825 192.905 16.8736H192.927ZM183.977 22.3226C183.963 22.7067 183.906 23.0766 183.814 23.4394C183.721 23.8093 183.565 24.165 183.359 24.5278C183.139 24.8835 182.856 25.1609 182.486 25.3744C182.089 25.6233 181.592 25.7727 180.989 25.8439C180.4 25.9008 179.931 25.9292 179.591 25.9292C179.158 25.9292 178.675 25.8865 178.143 25.7941C177.611 25.7016 177.171 25.5237 176.83 25.2463C176.432 24.9404 176.127 24.5349 175.914 24.0228C175.694 23.5248 175.595 23.0553 175.595 22.6214V15.9061H180.499C181.422 15.9061 182.103 16.1266 182.572 16.5677C183.026 17.0158 183.331 17.3715 183.487 17.656C183.736 18.1113 183.878 18.6449 183.92 19.2637C183.97 19.8755 183.998 20.5371 183.998 21.2413C183.998 21.5828 183.991 21.9385 183.97 22.3297L183.977 22.3226Z" fill="#727272"/>
</svg>
